<?xml version="1.0" standalone="no"?>
<!DOCTYPE svg PUBLIC "-//W3C//DTD SVG 1.1//EN"
  "http://www.w3.org/Graphics/SVG/1.1/DTD/svg11.dtd">
<svg width="44.641571044921875mm" height="53.17774963378905mm" viewBox="29.468299865722656 -22.319355010986325 44.641571044921875 53.17774963378905" xmlns="http://www.w3.org/2000/svg" version="1.1">
	<title>svgOutput</title>
	<desc>made with tinkercad</desc>
<path d="M 52.99465560913086 -14.85351181030273 L 53.08563232421875 -14.933883666992184 L 53.087032318115234 -14.935854911804196 L 53.23796463012695 -15.14846324920654 L 53.24800109863281 -15.163517951965328 L 53.37150573730469 -15.348773002624508 L 53.48609924316406 -15.67957782745361 L 53.525482177734375 -15.79329681396484 L 53.544525146484375 -16.032278060913082 L 53.5576171875 -16.295938491821286 L 53.53702926635742 -16.38400077819824 L 53.497314453125 -16.553853988647457 L 53.476341247558594 -16.671588897705075 L 53.461692810058594 -16.706222534179684 L 53.40674591064453 -16.836139678955075 L 53.288902282714844 -17.074209213256832 L 53.24800109863281 -17.124258041381832 L 53.176212310791016 -17.212100982666012 L 53.07160186767578 -17.355596542358395 L 53.03685760498047 -17.38261795043945 L 52.93123245239258 -17.464776992797848 L 52.68387222290039 -17.645378112792965 L 52.644283294677734 -17.674282073974606 L 52.47893142700195 -17.739231109619137 L 52.31779861450195 -17.813022613525387 L 52.14268112182617 -17.850336074829098 L 52.02719497680664 -17.874631881713864 L 51.8358154296875 -17.869859695434567 L 51.47993087768555 -17.85239791870117 L 51.32366943359375 -17.810647964477536 L 51.218605041503906 -17.756929397583004 L 51.20000076293945 -17.748214721679684 L 50.817596435546875 -17.569076538085934 L 50.772396087646484 -17.52878379821777 L 50.64142608642578 -17.412025451660153 L 50.39733123779297 -17.154113769531246 L 50.283416748046875 -16.94703674316406 L 50.139427185058594 -16.62429046630859 L 50.100528717041016 -16.390436172485348 L 50.10002517700195 -16.38400077819824 L 50.072975158691406 -16.038505554199215 L 50.114498138427734 -15.80356407165527 L 50.15829086303711 -15.594696044921871 L 50.16880798339844 -15.544531822204586 L 50.218955993652344 -15.435738563537594 L 50.32876968383789 -15.29303932189941 L 50.502010345458984 -14.986497879028317 L 50.62437057495117 -14.85997104644775 L 50.817962646484375 -14.718854904174801 L 51.1174201965332 -14.536787986755368 L 51.20000076293945 -14.512087821960446 L 51.34787368774414 -14.46786022186279 L 51.69117736816406 -14.39622592926025 L 51.86685562133789 -14.404506683349606 L 52.04781723022461 -14.402870178222653 L 52.09140396118164 -14.415091514587399 L 52.22264862060547 -14.451890945434567 L 52.70552444458008 -14.649576187133786 L 52.86381530761719 -14.736880302429196 L 52.99465560913086 -14.85351181030273 M 30.468299865722656 -21.23884582519531 L 32.768001556396484 -21.24318695068359 L 39.67942428588867 -21.25623512268066 L 49.152000427246094 -21.274120330810543 L 53.24800109863281 -21.281854629516598 L 57.34400177001953 -21.28958702087402 L 65.53600311279297 -21.305053710937496 L 73.10922241210938 -21.31935310363769 L 73.10987091064453 -21.319355010986325 L 73.10987091064453 -21.31935310363769 L 70.4094467163086 1.1102230246251565e-16 L 69.72858428955078 5.37529420852661 L 68.33443450927734 16.38400077819824 L 67.29698944091797 24.57600021362304 L 66.77826690673828 28.67200088500976 L 66.63873291015625 29.77381515502929 L 65.53600311279297 29.776992797851555 L 61.439998626708984 29.788791656494134 L 57.34400177001953 29.80059051513671 L 53.24800109863281 29.81238937377929 L 50.22764587402344 29.821088790893548 L 49.152000427246094 29.824186325073235 L 40.959999084472656 29.84778404235839 L 37.27629470825195 29.858394622802727 L 37.27616882324219 29.858394622802727 L 35.4809684753418 16.38400077819824 L 34.16361618041992 6.49626302719116 L 33.29808044433594 1.1102230246251565e-16 L 32.768001556396484 -3.9785053730010977 L 30.468299865722656 -21.23884582519531 M 53.45257568359375 26.10319519042968 L 53.347591400146484 25.891141891479485 L 53.27731704711914 25.830018997192376 L 53.24800109863281 25.804517745971673 L 53.13893127441406 25.709650039672844 L 52.91996765136719 25.48433876037597 L 52.85212707519531 25.460187911987298 L 52.59364318847656 25.36816787719726 L 52.31251525878906 25.2287311553955 L 52.159114837646484 25.19593429565429 L 52.11306381225586 25.197082519531243 L 51.90479278564453 25.20227622985839 L 51.76530075073242 25.19756317138671 L 51.715919494628906 25.206985473632805 L 51.560298919677734 25.23667907714843 L 51.35197830200195 25.292196273803704 L 51.212825775146484 25.364149093627923 L 51.20000076293945 25.369821548461907 L 51.021541595458984 25.448745727539055 L 51.021114349365234 25.448934555053704 L 50.95896530151367 25.495416641235344 L 50.89522171020508 25.543090820312493 L 50.78502655029297 25.625392913818352 L 50.78358840942383 25.626466751098626 L 50.632110595703125 25.806024551391594 L 50.49711990356445 25.965480804443352 L 50.38937759399414 26.175144195556634 L 50.294124603271484 26.36049842834472 L 50.29412078857422 26.360507965087884 L 50.254783630371094 26.513090133666985 L 50.23635482788086 26.6240005493164 L 50.20937728881836 26.786373138427727 L 50.1971321105957 26.94399452209472 L 50.2318229675293 27.178279876708977 L 50.244903564453125 27.31595039367675 L 50.25825119018555 27.356758117675774 L 50.30913543701172 27.512376785278313 L 50.37561798095703 27.682266235351555 L 50.39580154418945 27.73384475708007 L 50.48585891723633 27.8652057647705 L 50.59214782714844 28.04158401489257 L 50.74351501464844 28.180463790893548 L 50.983150482177734 28.388395309448235 L 51.125762939453125 28.459442138671868 L 51.20000076293945 28.50175476074218 L 51.24673080444336 28.528390884399407 L 51.3040771484375 28.561077117919915 L 51.36811447143555 28.5801773071289 L 51.45760726928711 28.60687065124511 L 51.69642639160156 28.62252235412597 L 51.93278884887695 28.67200088500976 L 51.962947845458984 28.678312301635735 L 52.010467529296875 28.67200088500976 L 52.23338317871094 28.642383575439446 L 52.4696044921875 28.60355377197265 L 52.46961975097656 28.603549957275384 L 52.596351623535156 28.55193138122558 L 52.7446174621582 28.491548538208 L 52.96269989013672 28.327867507934563 L 53.09856414794922 28.243743896484368 L 53.156410217285156 28.18247985839843 L 53.24800109863281 28.085477828979485 L 53.31718444824219 28.01220512390136 L 53.36094665527344 27.95732116699218 L 53.40261459350586 27.90506744384765 L 53.49142837524414 27.72002410888671 L 53.568302154541016 27.58022499084472 L 53.63376998901367 27.351083755493157 L 53.678749084472656 27.150270462036126 L 53.66574478149414 26.943809509277337 L 53.678035736083984 26.706590652465813 L 53.65853500366211 26.6240005493164 L 53.64090347290039 26.549318313598626 L 53.623565673828125 26.475872039794915 L 53.56479263305664 26.278110504150384 L 53.45257568359375 26.10319519042968 z" fill="none" stroke="rgb(255,0,0)" stroke-width="0.001mm" />
</svg>