<?xml version="1.0" standalone="no"?>
<!DOCTYPE svg PUBLIC "-//W3C//DTD SVG 1.1//EN"
  "http://www.w3.org/Graphics/SVG/1.1/DTD/svg11.dtd">
<svg width="44.900001525878906mm" height="451.9999999999999mm" viewBox="-22.450000762939453 -225.99999999999994 44.900001525878906 451.9999999999999" xmlns="http://www.w3.org/2000/svg" version="1.1">
	<title>svgOutput</title>
	<desc>made with tinkercad</desc>
<path d="M -21.450000762939453 -224.99999999999994 L -16.384000778198242 -224.99999999999994 L -8.192000389099121 -224.99999999999994 L 0 -224.99999999999994 L 8.192000389099121 -224.99999999999994 L 16.384000778198242 -224.99999999999994 L 21.450000762939453 -224.99999999999994 L 21.450000762939453 -212.9920043945312 L 21.450000762939453 -196.60800170898432 L 21.450000762939453 -131.0720062255859 L 21.450000762939453 1.1102230246251565e-16 L 21.450000762939453 131.0720062255859 L 21.450000762939453 196.60800170898432 L 21.450000762939453 212.9920043945312 L 21.450000762939453 224.99999999999994 L 16.384000778198242 224.99999999999994 L 8.192000389099121 224.99999999999994 L 0 224.99999999999994 L -8.192000389099121 224.99999999999994 L -16.384000778198242 224.99999999999994 L -21.450000762939453 224.99999999999994 L -21.450000762939453 212.9920043945312 L -21.450000762939453 196.60800170898432 L -21.450000762939453 131.0720062255859 L -21.450000762939453 1.1102230246251565e-16 L -21.450000762939453 -131.0720062255859 L -21.450000762939453 -196.60800170898432 L -21.450000762939453 -212.9920043945312 L -21.450000762939453 -224.99999999999994 M 1.1460000276565552 -221.31399536132807 L 0.9079999923706055 -221.490005493164 L 0.6430000066757202 -221.62399291992182 L 0.35899999737739563 -221.7109985351562 L 0.06400000303983688 -221.74800109863276 L 6.208817097605457e-13 -221.74540710449213 L -0.23199999332427979 -221.73599243164057 L -0.5220000147819519 -221.67300415039057 L -0.7979999780654907 -221.563003540039 L -1.0499999523162842 -221.406997680664 L -1.2730000019073486 -221.2109985351562 L -1.294857144355774 -221.18400573730463 L -1.4600000381469727 -220.979995727539 L -1.6039999723434448 -220.72099304199213 L -1.7029999494552612 -220.44099426269526 L -1.753999948501587 -220.14799499511713 L -1.753999948501587 -219.85200500488276 L -1.7029999494552612 -219.55900573730463 L -1.6039999723434448 -219.27900695800776 L -1.4600000381469727 -219.02000427246088 L -1.2730000019073486 -218.7890014648437 L -1.0499999523162842 -218.59300231933588 L -0.7979999780654907 -218.43699645996088 L -0.5220000147819519 -218.32699584960932 L -0.23199999332427979 -218.26400756835932 L -6.208817097605457e-13 -218.25459289550776 L 0.06400000303983688 -218.25199890136713 L 0.35899999737739563 -218.2890014648437 L 0.6430000066757202 -218.37600708007807 L 0.9079999923706055 -218.50999450683588 L 1.1460000276565552 -218.68600463867182 L 1.3519999980926514 -218.90100097656244 L 1.5180000066757202 -219.14700317382807 L 1.6399999856948853 -219.417007446289 L 1.715000033378601 -219.7039947509765 L 1.7400000095367432 -219.99999999999994 L 1.715000033378601 -220.29600524902338 L 1.6399999856948853 -220.58299255371088 L 1.5180000066757202 -220.85299682617182 L 1.3519999980926514 -221.09899902343744 L 1.2705581188201904 -221.18400573730463 L 1.1460000276565552 -221.31399536132807 M 1.3609999418258667 218.90100097656244 L 1.156000018119812 218.68600463867182 L 0.9169999957084656 218.50999450683588 L 0.6520000100135803 218.37600708007807 L 0.36899998784065247 218.2890014648437 L 0.07400000095367432 218.25199890136713 L -6.208817097605457e-13 218.25500488281244 L -0.22200000286102295 218.26400756835932 L -0.5130000114440918 218.32699584960932 L -0.7879999876022339 218.43699645996088 L -1.0410000085830688 218.59300231933588 L -1.2640000581741333 218.7890014648437 L -1.4500000476837158 219.02000427246088 L -1.5950000286102295 219.27900695800776 L -1.694000005722046 219.55900573730463 L -1.74399995803833 219.85200500488276 L -1.74399995803833 220.14799499511713 L -1.694000005722046 220.44099426269526 L -1.5950000286102295 220.72099304199213 L -1.4500000476837158 220.979995727539 L -1.2857402563095093 221.18400573730463 L -1.2640000581741333 221.2109985351562 L -1.0410000085830688 221.406997680664 L -0.7879999876022339 221.563003540039 L -0.5130000114440918 221.67300415039057 L -0.22200000286102295 221.73599243164057 L 6.208817097605457e-13 221.74499511718744 L 0.07400000095367432 221.74800109863276 L 0.36899998784065247 221.7109985351562 L 0.6520000100135803 221.62399291992182 L 0.9169999957084656 221.490005493164 L 1.156000018119812 221.31399536132807 L 1.2799534797668457 221.18400573730463 L 1.3609999418258667 221.09899902343744 L 1.527999997138977 220.85299682617182 L 1.649999976158142 220.58299255371088 L 1.725000023841858 220.29600524902338 L 1.75 219.99999999999994 L 1.725000023841858 219.7039947509765 L 1.649999976158142 219.417007446289 L 1.527999997138977 219.14700317382807 L 1.3609999418258667 218.90100097656244 z" fill="none" stroke="rgb(255,0,0)" stroke-width="0.001mm" />
</svg>